<svg xmlns="http://www.w3.org/2000/svg" width="1200" height="600" viewBox="0 0 1200 600">
  <defs>
    <linearGradient id="g" x1="0" y1="0" x2="1" y2="1">
      <stop offset="0" stop-color="#f8fafc"/>
      <stop offset="1" stop-color="#eef2ff"/>
    </linearGradient>
    <pattern id="grid" width="48" height="48" patternUnits="userSpaceOnUse">
      <path d="M 48 0 L 0 0 0 48" fill="none" stroke="#e2e8f0" stroke-width="1"/>
    </pattern>
    <linearGradient id="a" x1="0" y1="0" x2="1" y2="0">
      <stop offset="0" stop-color="#14b8a6" stop-opacity="0.25"/>
      <stop offset="1" stop-color="#3b82f6" stop-opacity="0.20"/>
    </linearGradient>
  </defs>
  <rect width="1200" height="600" fill="url(#g)"/>
  <rect width="1200" height="600" fill="url(#grid)" opacity="0.85"/>
  <g opacity="0.95" fill="none" stroke="url(#a)" stroke-width="2">
    <path d="M80,520 C220,380 320,520 460,380 C600,240 720,420 860,280 C980,170 1100,240 1160,120"/>
    <path d="M40,420 C200,300 340,420 480,300 C640,160 760,360 920,220 C1040,110 1120,150 1180,60"/>
  </g>
</svg>
